# xmcd
#
# Track frame offsets: 
#        150
#        20342
#        45072
#        66413
#        91512
#        117206
#        143800
#        163670
#        185389
#
# Disc length: 2906 seconds
#
# Revision: 0
# Processed by: cddbd v1.5.2PL0 Copyright (c) Steve Scherf et al.
# Submitted via: ExactAudioCopyFreeDBPlugin 1.0
#
DISCID=670b5809
DTITLE=Revocation - The Outer Ones
DYEAR=2018
DGENRE=Death Metal
TTITLE0=Of Unworldy Origin
TTITLE1=That Which Consumes All Things
TTITLE2=Blood Atonement
TTITLE3=Fathomless Catacombs
TTITLE4=The Outer Ones
TTITLE5=Vanitas
TTITLE6=Ex Nihilo
TTITLE7=Luciferous
TTITLE8=A Starkess Darkness
EXTD=
EXTT0=
EXTT1=
EXTT2=
EXTT3=
EXTT4=
EXTT5=
EXTT6=
EXTT7=
EXTT8=
PLAYORDER=
